<?xml version="1.0" encoding="iso-8859-1"?>
<!-- Generator: Adobe Illustrator 19.0.0, SVG Export Plug-In . SVG Version: 6.00 Build 0)  -->
<svg version="1.1" id="Capa_1" xmlns="http://www.w3.org/2000/svg" xmlns:xlink="http://www.w3.org/1999/xlink" x="0px" y="0px"
	 viewBox="0 0 407.014 407.014" style="enable-background:new 0 0 407.014 407.014;" xml:space="preserve">
<path style="fill:#3A2C51;" d="M203.507,52.271c-50.678,0-92.473,21.943-121.731,49.11v25.078l19.853-0.522
	c24.033-22.988,59.559-42.318,101.878-42.318c87.249,0,145.763,75.233,145.763,145.763c0,87.249-75.233,146.286-145.763,146.286
	c-61.127,0-145.763-50.678-145.763-146.286c0-8.882-6.792-15.673-15.673-15.673s-15.673,6.792-15.673,15.673
	c0,41.273,17.763,86.204,47.543,119.118c33.959,37.616,79.935,58.514,129.567,58.514c106.057,0,177.11-91.951,177.11-177.633
	S309.564,52.271,203.507,52.271z"/>
<path style="fill:#4DCFE0;" d="M82.821,100.337v-1.045L84.389,15.7c0-8.882-6.792-15.673-15.151-15.673
	c-8.882-0.522-15.673,6.792-15.673,15.151l-2.09,125.388c0,4.18,1.567,8.359,4.702,11.494c3.135,3.135,6.792,4.702,10.971,4.702
	c0,0,0,0,0.522,0l122.253-2.09c8.882,0,15.673-7.314,15.151-16.196c0-8.882-7.314-15.673-16.196-15.151l-86.204,1.567l0,0
	l-19.853,0.522L82.821,100.337L82.821,100.337z"/>
<g>
</g>
<g>
</g>
<g>
</g>
<g>
</g>
<g>
</g>
<g>
</g>
<g>
</g>
<g>
</g>
<g>
</g>
<g>
</g>
<g>
</g>
<g>
</g>
<g>
</g>
<g>
</g>
<g>
</g>
</svg>
